<mxfile host="embed.diagrams.net" agent="Mozilla/5.0 (Windows NT 10.0; Win64; x64; rv:133.0) Gecko/20100101 Firefox/133.0" version="25.0.3">
  <diagram id="R2lEEEUBdFMjLlhIrx00" name="Page-1">
    <mxGraphModel grid="1" page="1" gridSize="10" guides="1" tooltips="1" connect="1" arrows="1" fold="1" pageScale="1" pageWidth="850" pageHeight="1100" math="0" shadow="0" extFonts="Permanent Marker^https://fonts.googleapis.com/css?family=Permanent+Marker">
      <root>
        <mxCell id="0" />
        <mxCell id="1" parent="0" />
        <mxCell id="8GMKadwhIiMYlUsGgfQr-54" style="edgeStyle=orthogonalEdgeStyle;rounded=0;orthogonalLoop=1;jettySize=auto;html=1;exitX=1;exitY=0.5;exitDx=0;exitDy=0;entryX=0;entryY=0.5;entryDx=0;entryDy=0;endArrow=none;endFill=0;" edge="1" parent="1" source="8GMKadwhIiMYlUsGgfQr-1" target="8GMKadwhIiMYlUsGgfQr-50">
          <mxGeometry relative="1" as="geometry" />
        </mxCell>
        <mxCell id="8GMKadwhIiMYlUsGgfQr-1" value="Film" style="whiteSpace=wrap;html=1;align=center;" vertex="1" parent="1">
          <mxGeometry x="180" y="200" width="100" height="40" as="geometry" />
        </mxCell>
        <mxCell id="8GMKadwhIiMYlUsGgfQr-57" style="edgeStyle=orthogonalEdgeStyle;rounded=0;orthogonalLoop=1;jettySize=auto;html=1;exitX=0;exitY=0.5;exitDx=0;exitDy=0;entryX=1;entryY=0.5;entryDx=0;entryDy=0;endArrow=none;endFill=0;" edge="1" parent="1" source="8GMKadwhIiMYlUsGgfQr-2" target="8GMKadwhIiMYlUsGgfQr-53">
          <mxGeometry relative="1" as="geometry" />
        </mxCell>
        <mxCell id="8GMKadwhIiMYlUsGgfQr-2" value="Felhasználó" style="whiteSpace=wrap;html=1;align=center;" vertex="1" parent="1">
          <mxGeometry x="790" y="200" width="100" height="40" as="geometry" />
        </mxCell>
        <mxCell id="8GMKadwhIiMYlUsGgfQr-5" style="rounded=0;orthogonalLoop=1;jettySize=auto;html=1;exitX=1;exitY=1;exitDx=0;exitDy=0;entryX=0;entryY=0;entryDx=0;entryDy=0;endArrow=none;endFill=0;" edge="1" parent="1" source="8GMKadwhIiMYlUsGgfQr-4" target="8GMKadwhIiMYlUsGgfQr-1">
          <mxGeometry relative="1" as="geometry" />
        </mxCell>
        <mxCell id="8GMKadwhIiMYlUsGgfQr-4" value="&lt;u&gt;Cím&lt;/u&gt;" style="ellipse;whiteSpace=wrap;html=1;align=center;" vertex="1" parent="1">
          <mxGeometry x="30" y="120" width="100" height="40" as="geometry" />
        </mxCell>
        <mxCell id="8GMKadwhIiMYlUsGgfQr-8" style="rounded=0;orthogonalLoop=1;jettySize=auto;html=1;exitX=1;exitY=0.5;exitDx=0;exitDy=0;entryX=0;entryY=0.5;entryDx=0;entryDy=0;endArrow=none;endFill=0;" edge="1" parent="1" source="8GMKadwhIiMYlUsGgfQr-6" target="8GMKadwhIiMYlUsGgfQr-1">
          <mxGeometry relative="1" as="geometry" />
        </mxCell>
        <mxCell id="8GMKadwhIiMYlUsGgfQr-6" value="Rendező&lt;span style=&quot;color: rgba(0, 0, 0, 0); font-family: monospace; font-size: 0px; text-align: start; text-wrap: nowrap;&quot;&gt;%3CmxGraphModel%3E%3Croot%3E%3CmxCell%20id%3D%220%22%2F%3E%3CmxCell%20id%3D%221%22%20parent%3D%220%22%2F%3E%3CmxCell%20id%3D%222%22%20value%3D%22C%C3%ADm%22%20style%3D%22ellipse%3BwhiteSpace%3Dwrap%3Bhtml%3D1%3Balign%3Dcenter%3B%22%20vertex%3D%221%22%20parent%3D%221%22%3E%3CmxGeometry%20x%3D%2230%22%20y%3D%22120%22%20width%3D%22100%22%20height%3D%2240%22%20as%3D%22geometry%22%2F%3E%3C%2FmxCell%3E%3C%2Froot%3E%3C%2FmxGraphModel%3E&lt;/span&gt;" style="ellipse;whiteSpace=wrap;html=1;align=center;" vertex="1" parent="1">
          <mxGeometry x="30" y="180" width="100" height="40" as="geometry" />
        </mxCell>
        <mxCell id="8GMKadwhIiMYlUsGgfQr-13" style="rounded=0;orthogonalLoop=1;jettySize=auto;html=1;exitX=0.5;exitY=0;exitDx=0;exitDy=0;entryX=0.25;entryY=1;entryDx=0;entryDy=0;endArrow=none;endFill=0;" edge="1" parent="1" source="8GMKadwhIiMYlUsGgfQr-11" target="8GMKadwhIiMYlUsGgfQr-1">
          <mxGeometry relative="1" as="geometry" />
        </mxCell>
        <mxCell id="8GMKadwhIiMYlUsGgfQr-11" value="Hossz" style="ellipse;whiteSpace=wrap;html=1;align=center;" vertex="1" parent="1">
          <mxGeometry x="60" y="250" width="100" height="40" as="geometry" />
        </mxCell>
        <mxCell id="8GMKadwhIiMYlUsGgfQr-14" style="rounded=0;orthogonalLoop=1;jettySize=auto;html=1;exitX=0.5;exitY=0;exitDx=0;exitDy=0;entryX=0.5;entryY=1;entryDx=0;entryDy=0;endArrow=none;endFill=0;" edge="1" parent="1" source="8GMKadwhIiMYlUsGgfQr-12" target="8GMKadwhIiMYlUsGgfQr-1">
          <mxGeometry relative="1" as="geometry" />
        </mxCell>
        <mxCell id="8GMKadwhIiMYlUsGgfQr-12" value="Leírás" style="ellipse;whiteSpace=wrap;html=1;align=center;" vertex="1" parent="1">
          <mxGeometry x="170" y="270" width="100" height="40" as="geometry" />
        </mxCell>
        <mxCell id="8GMKadwhIiMYlUsGgfQr-15" value="&lt;u&gt;Kiadás_Dátuma&lt;/u&gt;" style="ellipse;whiteSpace=wrap;html=1;align=center;" vertex="1" parent="1">
          <mxGeometry x="140" y="120" width="100" height="40" as="geometry" />
        </mxCell>
        <mxCell id="8GMKadwhIiMYlUsGgfQr-16" style="rounded=0;orthogonalLoop=1;jettySize=auto;html=1;exitX=0.5;exitY=1;exitDx=0;exitDy=0;entryX=0.16;entryY=0.075;entryDx=0;entryDy=0;entryPerimeter=0;endArrow=none;endFill=0;" edge="1" parent="1" source="8GMKadwhIiMYlUsGgfQr-15" target="8GMKadwhIiMYlUsGgfQr-1">
          <mxGeometry relative="1" as="geometry" />
        </mxCell>
        <mxCell id="8GMKadwhIiMYlUsGgfQr-28" style="rounded=0;orthogonalLoop=1;jettySize=auto;html=1;exitX=0.5;exitY=1;exitDx=0;exitDy=0;endArrow=none;endFill=0;" edge="1" parent="1" source="8GMKadwhIiMYlUsGgfQr-24" target="8GMKadwhIiMYlUsGgfQr-2">
          <mxGeometry relative="1" as="geometry" />
        </mxCell>
        <mxCell id="8GMKadwhIiMYlUsGgfQr-24" value="&lt;u&gt;Foglalás_ID&lt;/u&gt;" style="ellipse;whiteSpace=wrap;html=1;align=center;" vertex="1" parent="1">
          <mxGeometry x="790" y="120" width="100" height="40" as="geometry" />
        </mxCell>
        <mxCell id="8GMKadwhIiMYlUsGgfQr-29" style="rounded=0;orthogonalLoop=1;jettySize=auto;html=1;exitX=0;exitY=0.5;exitDx=0;exitDy=0;entryX=0.75;entryY=0;entryDx=0;entryDy=0;endArrow=none;endFill=0;" edge="1" parent="1" source="8GMKadwhIiMYlUsGgfQr-25" target="8GMKadwhIiMYlUsGgfQr-2">
          <mxGeometry relative="1" as="geometry" />
        </mxCell>
        <mxCell id="8GMKadwhIiMYlUsGgfQr-25" value="Vezetéknév" style="ellipse;whiteSpace=wrap;html=1;align=center;" vertex="1" parent="1">
          <mxGeometry x="900" y="140" width="100" height="40" as="geometry" />
        </mxCell>
        <mxCell id="8GMKadwhIiMYlUsGgfQr-30" style="rounded=0;orthogonalLoop=1;jettySize=auto;html=1;exitX=0;exitY=0.5;exitDx=0;exitDy=0;entryX=1;entryY=0.5;entryDx=0;entryDy=0;endArrow=none;endFill=0;" edge="1" parent="1" source="8GMKadwhIiMYlUsGgfQr-26" target="8GMKadwhIiMYlUsGgfQr-2">
          <mxGeometry relative="1" as="geometry" />
        </mxCell>
        <mxCell id="8GMKadwhIiMYlUsGgfQr-26" value="Keresztnév" style="ellipse;whiteSpace=wrap;html=1;align=center;" vertex="1" parent="1">
          <mxGeometry x="920" y="200" width="100" height="40" as="geometry" />
        </mxCell>
        <mxCell id="8GMKadwhIiMYlUsGgfQr-27" value="Email" style="ellipse;whiteSpace=wrap;html=1;align=center;" vertex="1" parent="1">
          <mxGeometry x="900" y="260" width="100" height="40" as="geometry" />
        </mxCell>
        <mxCell id="8GMKadwhIiMYlUsGgfQr-31" style="rounded=0;orthogonalLoop=1;jettySize=auto;html=1;exitX=0;exitY=0.5;exitDx=0;exitDy=0;entryX=0.75;entryY=1;entryDx=0;entryDy=0;endArrow=none;endFill=0;" edge="1" parent="1" source="8GMKadwhIiMYlUsGgfQr-27" target="8GMKadwhIiMYlUsGgfQr-2">
          <mxGeometry relative="1" as="geometry" />
        </mxCell>
        <mxCell id="8GMKadwhIiMYlUsGgfQr-33" style="rounded=0;orthogonalLoop=1;jettySize=auto;html=1;exitX=0.5;exitY=0;exitDx=0;exitDy=0;entryX=0.5;entryY=1;entryDx=0;entryDy=0;endArrow=none;endFill=0;" edge="1" parent="1" source="8GMKadwhIiMYlUsGgfQr-32" target="8GMKadwhIiMYlUsGgfQr-2">
          <mxGeometry relative="1" as="geometry" />
        </mxCell>
        <mxCell id="8GMKadwhIiMYlUsGgfQr-32" value="Tel" style="ellipse;whiteSpace=wrap;html=1;align=center;" vertex="1" parent="1">
          <mxGeometry x="790" y="290" width="100" height="40" as="geometry" />
        </mxCell>
        <mxCell id="8GMKadwhIiMYlUsGgfQr-43" value="Vetítés kezdete" style="ellipse;whiteSpace=wrap;html=1;align=center;" vertex="1" parent="1">
          <mxGeometry x="560" y="120" width="100" height="40" as="geometry" />
        </mxCell>
        <mxCell id="8GMKadwhIiMYlUsGgfQr-45" value="Terem" style="ellipse;whiteSpace=wrap;html=1;align=center;" vertex="1" parent="1">
          <mxGeometry x="440" y="120" width="100" height="40" as="geometry" />
        </mxCell>
        <mxCell id="8GMKadwhIiMYlUsGgfQr-47" value="Oszlop" style="ellipse;whiteSpace=wrap;html=1;align=center;" vertex="1" parent="1">
          <mxGeometry x="600" y="260" width="100" height="40" as="geometry" />
        </mxCell>
        <mxCell id="8GMKadwhIiMYlUsGgfQr-49" value="ID" style="ellipse;whiteSpace=wrap;html=1;align=center;" vertex="1" parent="1">
          <mxGeometry x="400" y="260" width="100" height="40" as="geometry" />
        </mxCell>
        <mxCell id="8GMKadwhIiMYlUsGgfQr-55" style="edgeStyle=orthogonalEdgeStyle;rounded=0;orthogonalLoop=1;jettySize=auto;html=1;exitX=1;exitY=0.5;exitDx=0;exitDy=0;endArrow=none;endFill=0;" edge="1" parent="1" source="8GMKadwhIiMYlUsGgfQr-50" target="8GMKadwhIiMYlUsGgfQr-52">
          <mxGeometry relative="1" as="geometry" />
        </mxCell>
        <mxCell id="8GMKadwhIiMYlUsGgfQr-50" value="Vetítés" style="shape=rhombus;perimeter=rhombusPerimeter;whiteSpace=wrap;html=1;align=center;" vertex="1" parent="1">
          <mxGeometry x="330" y="190" width="120" height="60" as="geometry" />
        </mxCell>
        <mxCell id="8GMKadwhIiMYlUsGgfQr-58" style="edgeStyle=orthogonalEdgeStyle;rounded=0;orthogonalLoop=1;jettySize=auto;html=1;exitX=1;exitY=0.5;exitDx=0;exitDy=0;entryX=0;entryY=0.5;entryDx=0;entryDy=0;endArrow=none;endFill=0;" edge="1" parent="1" source="8GMKadwhIiMYlUsGgfQr-52" target="8GMKadwhIiMYlUsGgfQr-53">
          <mxGeometry relative="1" as="geometry" />
        </mxCell>
        <mxCell id="8GMKadwhIiMYlUsGgfQr-63" style="rounded=0;orthogonalLoop=1;jettySize=auto;html=1;exitX=0.75;exitY=1;exitDx=0;exitDy=0;entryX=0.5;entryY=0;entryDx=0;entryDy=0;endArrow=none;endFill=0;" edge="1" parent="1" source="8GMKadwhIiMYlUsGgfQr-52" target="8GMKadwhIiMYlUsGgfQr-47">
          <mxGeometry relative="1" as="geometry" />
        </mxCell>
        <mxCell id="8GMKadwhIiMYlUsGgfQr-52" value="Jegy" style="whiteSpace=wrap;html=1;align=center;" vertex="1" parent="1">
          <mxGeometry x="500" y="200" width="100" height="40" as="geometry" />
        </mxCell>
        <mxCell id="8GMKadwhIiMYlUsGgfQr-53" value="Foglalás" style="shape=rhombus;perimeter=rhombusPerimeter;whiteSpace=wrap;html=1;align=center;" vertex="1" parent="1">
          <mxGeometry x="650" y="190" width="120" height="60" as="geometry" />
        </mxCell>
        <mxCell id="8GMKadwhIiMYlUsGgfQr-60" style="rounded=0;orthogonalLoop=1;jettySize=auto;html=1;exitX=0.25;exitY=0;exitDx=0;exitDy=0;entryX=0.565;entryY=1.058;entryDx=0;entryDy=0;entryPerimeter=0;endArrow=none;endFill=0;" edge="1" parent="1" source="8GMKadwhIiMYlUsGgfQr-52" target="8GMKadwhIiMYlUsGgfQr-45">
          <mxGeometry relative="1" as="geometry" />
        </mxCell>
        <mxCell id="8GMKadwhIiMYlUsGgfQr-61" style="rounded=0;orthogonalLoop=1;jettySize=auto;html=1;exitX=0.75;exitY=0;exitDx=0;exitDy=0;entryX=0.558;entryY=1.041;entryDx=0;entryDy=0;entryPerimeter=0;endArrow=none;endFill=0;" edge="1" parent="1" source="8GMKadwhIiMYlUsGgfQr-52" target="8GMKadwhIiMYlUsGgfQr-43">
          <mxGeometry relative="1" as="geometry" />
        </mxCell>
        <mxCell id="8GMKadwhIiMYlUsGgfQr-62" style="rounded=0;orthogonalLoop=1;jettySize=auto;html=1;exitX=0.25;exitY=1;exitDx=0;exitDy=0;entryX=0.455;entryY=0.006;entryDx=0;entryDy=0;entryPerimeter=0;endArrow=none;endFill=0;" edge="1" parent="1" source="8GMKadwhIiMYlUsGgfQr-52" target="8GMKadwhIiMYlUsGgfQr-49">
          <mxGeometry relative="1" as="geometry" />
        </mxCell>
        <mxCell id="8GMKadwhIiMYlUsGgfQr-65" style="edgeStyle=orthogonalEdgeStyle;rounded=0;orthogonalLoop=1;jettySize=auto;html=1;exitX=0.5;exitY=0;exitDx=0;exitDy=0;entryX=0.5;entryY=1;entryDx=0;entryDy=0;endArrow=none;endFill=0;" edge="1" parent="1" source="8GMKadwhIiMYlUsGgfQr-64" target="8GMKadwhIiMYlUsGgfQr-52">
          <mxGeometry relative="1" as="geometry" />
        </mxCell>
        <mxCell id="8GMKadwhIiMYlUsGgfQr-64" value="Sor" style="ellipse;whiteSpace=wrap;html=1;align=center;" vertex="1" parent="1">
          <mxGeometry x="500" y="280" width="100" height="40" as="geometry" />
        </mxCell>
        <mxCell id="sP4VC_2pDPdb19b1DUI2-40" style="edgeStyle=orthogonalEdgeStyle;rounded=0;orthogonalLoop=1;jettySize=auto;html=1;exitX=1;exitY=0.5;exitDx=0;exitDy=0;entryX=0;entryY=0.5;entryDx=0;entryDy=0;endArrow=none;endFill=0;" edge="1" parent="1" source="sP4VC_2pDPdb19b1DUI2-41" target="sP4VC_2pDPdb19b1DUI2-69">
          <mxGeometry relative="1" as="geometry" />
        </mxCell>
        <mxCell id="sP4VC_2pDPdb19b1DUI2-41" value="Film" style="whiteSpace=wrap;html=1;align=center;" vertex="1" parent="1">
          <mxGeometry x="205" y="630" width="100" height="40" as="geometry" />
        </mxCell>
        <mxCell id="sP4VC_2pDPdb19b1DUI2-44" style="rounded=0;orthogonalLoop=1;jettySize=auto;html=1;exitX=1;exitY=1;exitDx=0;exitDy=0;entryX=0;entryY=0;entryDx=0;entryDy=0;endArrow=none;endFill=0;" edge="1" parent="1" source="sP4VC_2pDPdb19b1DUI2-45" target="sP4VC_2pDPdb19b1DUI2-41">
          <mxGeometry relative="1" as="geometry" />
        </mxCell>
        <mxCell id="sP4VC_2pDPdb19b1DUI2-45" value="Cím" style="ellipse;whiteSpace=wrap;html=1;align=center;" vertex="1" parent="1">
          <mxGeometry x="55" y="550" width="100" height="40" as="geometry" />
        </mxCell>
        <mxCell id="sP4VC_2pDPdb19b1DUI2-46" style="rounded=0;orthogonalLoop=1;jettySize=auto;html=1;exitX=1;exitY=0.5;exitDx=0;exitDy=0;entryX=0;entryY=0.5;entryDx=0;entryDy=0;endArrow=none;endFill=0;" edge="1" parent="1" source="sP4VC_2pDPdb19b1DUI2-47" target="sP4VC_2pDPdb19b1DUI2-41">
          <mxGeometry relative="1" as="geometry" />
        </mxCell>
        <mxCell id="sP4VC_2pDPdb19b1DUI2-47" value="Rendező&lt;span style=&quot;color: rgba(0, 0, 0, 0); font-family: monospace; font-size: 0px; text-align: start; text-wrap: nowrap;&quot;&gt;%3CmxGraphModel%3E%3Croot%3E%3CmxCell%20id%3D%220%22%2F%3E%3CmxCell%20id%3D%221%22%20parent%3D%220%22%2F%3E%3CmxCell%20id%3D%222%22%20value%3D%22C%C3%ADm%22%20style%3D%22ellipse%3BwhiteSpace%3Dwrap%3Bhtml%3D1%3Balign%3Dcenter%3B%22%20vertex%3D%221%22%20parent%3D%221%22%3E%3CmxGeometry%20x%3D%2230%22%20y%3D%22120%22%20width%3D%22100%22%20height%3D%2240%22%20as%3D%22geometry%22%2F%3E%3C%2FmxCell%3E%3C%2Froot%3E%3C%2FmxGraphModel%3E&lt;/span&gt;" style="ellipse;whiteSpace=wrap;html=1;align=center;" vertex="1" parent="1">
          <mxGeometry x="55" y="610" width="100" height="40" as="geometry" />
        </mxCell>
        <mxCell id="sP4VC_2pDPdb19b1DUI2-48" style="rounded=0;orthogonalLoop=1;jettySize=auto;html=1;exitX=0.5;exitY=0;exitDx=0;exitDy=0;entryX=0.25;entryY=1;entryDx=0;entryDy=0;endArrow=none;endFill=0;" edge="1" parent="1" source="sP4VC_2pDPdb19b1DUI2-49" target="sP4VC_2pDPdb19b1DUI2-41">
          <mxGeometry relative="1" as="geometry" />
        </mxCell>
        <mxCell id="sP4VC_2pDPdb19b1DUI2-49" value="Hossz" style="ellipse;whiteSpace=wrap;html=1;align=center;" vertex="1" parent="1">
          <mxGeometry x="85" y="680" width="100" height="40" as="geometry" />
        </mxCell>
        <mxCell id="sP4VC_2pDPdb19b1DUI2-50" style="rounded=0;orthogonalLoop=1;jettySize=auto;html=1;exitX=0.5;exitY=0;exitDx=0;exitDy=0;entryX=0.5;entryY=1;entryDx=0;entryDy=0;endArrow=none;endFill=0;" edge="1" parent="1" source="sP4VC_2pDPdb19b1DUI2-51" target="sP4VC_2pDPdb19b1DUI2-41">
          <mxGeometry relative="1" as="geometry" />
        </mxCell>
        <mxCell id="sP4VC_2pDPdb19b1DUI2-51" value="Leírás" style="ellipse;whiteSpace=wrap;html=1;align=center;" vertex="1" parent="1">
          <mxGeometry x="195" y="700" width="100" height="40" as="geometry" />
        </mxCell>
        <mxCell id="sP4VC_2pDPdb19b1DUI2-52" value="Kiadás_Dátuma" style="ellipse;whiteSpace=wrap;html=1;align=center;" vertex="1" parent="1">
          <mxGeometry x="165" y="550" width="100" height="40" as="geometry" />
        </mxCell>
        <mxCell id="sP4VC_2pDPdb19b1DUI2-53" style="rounded=0;orthogonalLoop=1;jettySize=auto;html=1;exitX=0.5;exitY=1;exitDx=0;exitDy=0;entryX=0.16;entryY=0.075;entryDx=0;entryDy=0;entryPerimeter=0;endArrow=none;endFill=0;" edge="1" parent="1" source="sP4VC_2pDPdb19b1DUI2-52" target="sP4VC_2pDPdb19b1DUI2-41">
          <mxGeometry relative="1" as="geometry" />
        </mxCell>
        <mxCell id="sP4VC_2pDPdb19b1DUI2-64" value="Kereszt név" style="ellipse;whiteSpace=wrap;html=1;align=center;" vertex="1" parent="1">
          <mxGeometry x="810" y="550" width="100" height="40" as="geometry" />
        </mxCell>
        <mxCell id="sP4VC_2pDPdb19b1DUI2-65" value="Vezeték név" style="ellipse;whiteSpace=wrap;html=1;align=center;" vertex="1" parent="1">
          <mxGeometry x="690" y="550" width="100" height="40" as="geometry" />
        </mxCell>
        <mxCell id="sP4VC_2pDPdb19b1DUI2-66" value="Oszlop" style="ellipse;whiteSpace=wrap;html=1;align=center;" vertex="1" parent="1">
          <mxGeometry x="850" y="710" width="100" height="40" as="geometry" />
        </mxCell>
        <mxCell id="sP4VC_2pDPdb19b1DUI2-81" style="rounded=0;orthogonalLoop=1;jettySize=auto;html=1;exitX=1;exitY=0.5;exitDx=0;exitDy=0;endArrow=none;endFill=0;" edge="1" parent="1" source="sP4VC_2pDPdb19b1DUI2-69" target="sP4VC_2pDPdb19b1DUI2-72">
          <mxGeometry relative="1" as="geometry" />
        </mxCell>
        <mxCell id="sP4VC_2pDPdb19b1DUI2-85" style="rounded=0;orthogonalLoop=1;jettySize=auto;html=1;exitX=0;exitY=1;exitDx=0;exitDy=0;entryX=0.5;entryY=0;entryDx=0;entryDy=0;endArrow=none;endFill=0;" edge="1" parent="1" source="sP4VC_2pDPdb19b1DUI2-69" target="sP4VC_2pDPdb19b1DUI2-82">
          <mxGeometry relative="1" as="geometry" />
        </mxCell>
        <mxCell id="sP4VC_2pDPdb19b1DUI2-86" style="rounded=0;orthogonalLoop=1;jettySize=auto;html=1;exitX=1;exitY=1;exitDx=0;exitDy=0;endArrow=none;endFill=0;" edge="1" parent="1" source="sP4VC_2pDPdb19b1DUI2-69" target="sP4VC_2pDPdb19b1DUI2-83">
          <mxGeometry relative="1" as="geometry" />
        </mxCell>
        <mxCell id="sP4VC_2pDPdb19b1DUI2-97" style="rounded=0;orthogonalLoop=1;jettySize=auto;html=1;exitX=0.5;exitY=1;exitDx=0;exitDy=0;endArrow=none;endFill=0;" edge="1" parent="1" source="sP4VC_2pDPdb19b1DUI2-69" target="sP4VC_2pDPdb19b1DUI2-96">
          <mxGeometry relative="1" as="geometry" />
        </mxCell>
        <mxCell id="sP4VC_2pDPdb19b1DUI2-69" value="Vetítés" style="shape=rhombus;perimeter=rhombusPerimeter;whiteSpace=wrap;html=1;align=center;" vertex="1" parent="1">
          <mxGeometry x="450" y="620" width="120" height="60" as="geometry" />
        </mxCell>
        <mxCell id="sP4VC_2pDPdb19b1DUI2-71" style="rounded=0;orthogonalLoop=1;jettySize=auto;html=1;exitX=0.75;exitY=1;exitDx=0;exitDy=0;entryX=0.5;entryY=0;entryDx=0;entryDy=0;endArrow=none;endFill=0;" edge="1" parent="1" source="sP4VC_2pDPdb19b1DUI2-72" target="sP4VC_2pDPdb19b1DUI2-66">
          <mxGeometry relative="1" as="geometry" />
        </mxCell>
        <mxCell id="sP4VC_2pDPdb19b1DUI2-72" value="Jegy" style="whiteSpace=wrap;html=1;align=center;" vertex="1" parent="1">
          <mxGeometry x="750" y="630" width="100" height="40" as="geometry" />
        </mxCell>
        <mxCell id="sP4VC_2pDPdb19b1DUI2-74" style="rounded=0;orthogonalLoop=1;jettySize=auto;html=1;exitX=0.25;exitY=0;exitDx=0;exitDy=0;entryX=0.565;entryY=1.058;entryDx=0;entryDy=0;entryPerimeter=0;endArrow=none;endFill=0;" edge="1" parent="1" source="sP4VC_2pDPdb19b1DUI2-72" target="sP4VC_2pDPdb19b1DUI2-65">
          <mxGeometry relative="1" as="geometry" />
        </mxCell>
        <mxCell id="sP4VC_2pDPdb19b1DUI2-75" style="rounded=0;orthogonalLoop=1;jettySize=auto;html=1;exitX=0.75;exitY=0;exitDx=0;exitDy=0;entryX=0.558;entryY=1.041;entryDx=0;entryDy=0;entryPerimeter=0;endArrow=none;endFill=0;fontStyle=4" edge="1" parent="1" source="sP4VC_2pDPdb19b1DUI2-72" target="sP4VC_2pDPdb19b1DUI2-64">
          <mxGeometry relative="1" as="geometry" />
        </mxCell>
        <mxCell id="sP4VC_2pDPdb19b1DUI2-77" style="rounded=0;orthogonalLoop=1;jettySize=auto;html=1;exitX=0.5;exitY=0;exitDx=0;exitDy=0;entryX=0.5;entryY=1;entryDx=0;entryDy=0;endArrow=none;endFill=0;" edge="1" parent="1" source="sP4VC_2pDPdb19b1DUI2-78" target="sP4VC_2pDPdb19b1DUI2-72">
          <mxGeometry relative="1" as="geometry" />
        </mxCell>
        <mxCell id="sP4VC_2pDPdb19b1DUI2-78" value="Sor" style="ellipse;whiteSpace=wrap;html=1;align=center;" vertex="1" parent="1">
          <mxGeometry x="730" y="710" width="100" height="40" as="geometry" />
        </mxCell>
        <mxCell id="sP4VC_2pDPdb19b1DUI2-80" style="rounded=0;orthogonalLoop=1;jettySize=auto;html=1;exitX=0;exitY=1;exitDx=0;exitDy=0;endArrow=none;endFill=0;" edge="1" parent="1" source="sP4VC_2pDPdb19b1DUI2-79" target="sP4VC_2pDPdb19b1DUI2-41">
          <mxGeometry relative="1" as="geometry" />
        </mxCell>
        <mxCell id="sP4VC_2pDPdb19b1DUI2-79" value="&lt;u&gt;ID&lt;/u&gt;" style="ellipse;whiteSpace=wrap;html=1;align=center;" vertex="1" parent="1">
          <mxGeometry x="280" y="540" width="100" height="40" as="geometry" />
        </mxCell>
        <mxCell id="sP4VC_2pDPdb19b1DUI2-82" value="Dátum" style="ellipse;whiteSpace=wrap;html=1;align=center;" vertex="1" parent="1">
          <mxGeometry x="370" y="720" width="100" height="40" as="geometry" />
        </mxCell>
        <mxCell id="sP4VC_2pDPdb19b1DUI2-83" value="Terem" style="ellipse;whiteSpace=wrap;html=1;align=center;" vertex="1" parent="1">
          <mxGeometry x="510" y="720" width="100" height="40" as="geometry" />
        </mxCell>
        <mxCell id="sP4VC_2pDPdb19b1DUI2-91" style="rounded=0;orthogonalLoop=1;jettySize=auto;html=1;exitX=0;exitY=0.5;exitDx=0;exitDy=0;endArrow=none;endFill=0;" edge="1" parent="1" source="sP4VC_2pDPdb19b1DUI2-87" target="sP4VC_2pDPdb19b1DUI2-72">
          <mxGeometry relative="1" as="geometry" />
        </mxCell>
        <mxCell id="sP4VC_2pDPdb19b1DUI2-87" value="Email" style="ellipse;whiteSpace=wrap;html=1;align=center;" vertex="1" parent="1">
          <mxGeometry x="910" y="590" width="100" height="40" as="geometry" />
        </mxCell>
        <mxCell id="sP4VC_2pDPdb19b1DUI2-92" style="rounded=0;orthogonalLoop=1;jettySize=auto;html=1;exitX=0;exitY=0.5;exitDx=0;exitDy=0;entryX=1;entryY=0.75;entryDx=0;entryDy=0;endArrow=none;endFill=0;" edge="1" parent="1" source="sP4VC_2pDPdb19b1DUI2-89" target="sP4VC_2pDPdb19b1DUI2-72">
          <mxGeometry relative="1" as="geometry" />
        </mxCell>
        <mxCell id="sP4VC_2pDPdb19b1DUI2-89" value="Phone" style="ellipse;whiteSpace=wrap;html=1;align=center;" vertex="1" parent="1">
          <mxGeometry x="900" y="650" width="100" height="40" as="geometry" />
        </mxCell>
        <mxCell id="sP4VC_2pDPdb19b1DUI2-95" style="rounded=0;orthogonalLoop=1;jettySize=auto;html=1;exitX=1;exitY=0;exitDx=0;exitDy=0;entryX=0;entryY=0.75;entryDx=0;entryDy=0;endArrow=none;endFill=0;" edge="1" parent="1" source="sP4VC_2pDPdb19b1DUI2-93" target="sP4VC_2pDPdb19b1DUI2-72">
          <mxGeometry relative="1" as="geometry" />
        </mxCell>
        <mxCell id="sP4VC_2pDPdb19b1DUI2-93" value="&lt;u&gt;ID&lt;/u&gt;" style="ellipse;whiteSpace=wrap;html=1;align=center;" vertex="1" parent="1">
          <mxGeometry x="640" y="670" width="100" height="40" as="geometry" />
        </mxCell>
        <mxCell id="sP4VC_2pDPdb19b1DUI2-96" value="Idő" style="ellipse;whiteSpace=wrap;html=1;align=center;" vertex="1" parent="1">
          <mxGeometry x="440" y="760" width="100" height="40" as="geometry" />
        </mxCell>
      </root>
    </mxGraphModel>
  </diagram>
</mxfile>
